<mxfile host="app.diagrams.net" modified="2021-06-03T03:34:54.014Z" agent="5.0 (Windows)" etag="GmQS5uiLlFcoDMO6d0fr" version="14.7.3" type="github" pages="4">
  <diagram id="Ufn7qZNCyAaY2s0GM-F4" name="Page-1">
    <mxGraphModel dx="865" dy="433" grid="1" gridSize="10" guides="1" tooltips="1" connect="1" arrows="1" fold="1" page="1" pageScale="1" pageWidth="850" pageHeight="1100" math="0" shadow="0">
      <root>
        <mxCell id="0" />
        <mxCell id="1" parent="0" />
        <mxCell id="SScb_Fj4Xh0ruAuOUnyt-5" value="Interface&#xa;Video" style="swimlane;fontStyle=0;childLayout=stackLayout;horizontal=1;startSize=26;fillColor=none;horizontalStack=0;resizeParent=1;resizeParentMax=0;resizeLast=0;collapsible=1;marginBottom=0;" vertex="1" parent="1">
          <mxGeometry x="285" y="100" width="155" height="62" as="geometry">
            <mxRectangle x="285" y="100" width="80" height="30" as="alternateBounds" />
          </mxGeometry>
        </mxCell>
        <mxCell id="SScb_Fj4Xh0ruAuOUnyt-6" value="void showImage()" style="text;strokeColor=none;fillColor=none;align=left;verticalAlign=top;spacingLeft=4;spacingRight=4;overflow=hidden;rotatable=0;points=[[0,0.5],[1,0.5]];portConstraint=eastwest;" vertex="1" parent="SScb_Fj4Xh0ruAuOUnyt-5">
          <mxGeometry y="26" width="155" height="36" as="geometry" />
        </mxCell>
        <mxCell id="SScb_Fj4Xh0ruAuOUnyt-10" value="ProxyVideo" style="swimlane;fontStyle=0;childLayout=stackLayout;horizontal=1;startSize=26;fillColor=none;horizontalStack=0;resizeParent=1;resizeParentMax=0;resizeLast=0;collapsible=1;marginBottom=0;" vertex="1" parent="1">
          <mxGeometry x="160" y="210" width="155" height="86" as="geometry">
            <mxRectangle x="285" y="100" width="80" height="30" as="alternateBounds" />
          </mxGeometry>
        </mxCell>
        <mxCell id="SScb_Fj4Xh0ruAuOUnyt-11" value="RealVideo realVideo" style="text;strokeColor=none;fillColor=none;align=left;verticalAlign=top;spacingLeft=4;spacingRight=4;overflow=hidden;rotatable=0;points=[[0,0.5],[1,0.5]];portConstraint=eastwest;" vertex="1" parent="SScb_Fj4Xh0ruAuOUnyt-10">
          <mxGeometry y="26" width="155" height="24" as="geometry" />
        </mxCell>
        <mxCell id="SScb_Fj4Xh0ruAuOUnyt-12" value="void showImage()" style="text;strokeColor=none;fillColor=none;align=left;verticalAlign=top;spacingLeft=4;spacingRight=4;overflow=hidden;rotatable=0;points=[[0,0.5],[1,0.5]];portConstraint=eastwest;" vertex="1" parent="SScb_Fj4Xh0ruAuOUnyt-10">
          <mxGeometry y="50" width="155" height="36" as="geometry" />
        </mxCell>
        <mxCell id="SScb_Fj4Xh0ruAuOUnyt-13" value="RealVideo" style="swimlane;fontStyle=0;childLayout=stackLayout;horizontal=1;startSize=26;fillColor=none;horizontalStack=0;resizeParent=1;resizeParentMax=0;resizeLast=0;collapsible=1;marginBottom=0;" vertex="1" parent="1">
          <mxGeometry x="400" y="210" width="155" height="62" as="geometry">
            <mxRectangle x="285" y="100" width="80" height="30" as="alternateBounds" />
          </mxGeometry>
        </mxCell>
        <mxCell id="SScb_Fj4Xh0ruAuOUnyt-14" value="void showImage()" style="text;strokeColor=none;fillColor=none;align=left;verticalAlign=top;spacingLeft=4;spacingRight=4;overflow=hidden;rotatable=0;points=[[0,0.5],[1,0.5]];portConstraint=eastwest;" vertex="1" parent="SScb_Fj4Xh0ruAuOUnyt-13">
          <mxGeometry y="26" width="155" height="36" as="geometry" />
        </mxCell>
        <mxCell id="SScb_Fj4Xh0ruAuOUnyt-15" value="" style="endArrow=block;dashed=1;endFill=0;endSize=12;html=1;exitX=0.5;exitY=0;exitDx=0;exitDy=0;" edge="1" parent="1" source="SScb_Fj4Xh0ruAuOUnyt-10" target="SScb_Fj4Xh0ruAuOUnyt-6">
          <mxGeometry width="160" relative="1" as="geometry">
            <mxPoint x="310" y="360" as="sourcePoint" />
            <mxPoint x="470" y="360" as="targetPoint" />
          </mxGeometry>
        </mxCell>
        <mxCell id="SScb_Fj4Xh0ruAuOUnyt-18" value="" style="endArrow=block;dashed=1;endFill=0;endSize=12;html=1;exitX=0.25;exitY=0;exitDx=0;exitDy=0;entryX=0.661;entryY=1.046;entryDx=0;entryDy=0;entryPerimeter=0;" edge="1" parent="1" source="SScb_Fj4Xh0ruAuOUnyt-13" target="SScb_Fj4Xh0ruAuOUnyt-6">
          <mxGeometry width="160" relative="1" as="geometry">
            <mxPoint x="247.5" y="220" as="sourcePoint" />
            <mxPoint x="338.409090909091" y="172" as="targetPoint" />
          </mxGeometry>
        </mxCell>
        <mxCell id="SScb_Fj4Xh0ruAuOUnyt-19" value="" style="endArrow=diamondThin;endFill=0;endSize=24;html=1;exitX=0;exitY=0.5;exitDx=0;exitDy=0;entryX=1;entryY=0.5;entryDx=0;entryDy=0;" edge="1" parent="1" source="SScb_Fj4Xh0ruAuOUnyt-14" target="SScb_Fj4Xh0ruAuOUnyt-11">
          <mxGeometry width="160" relative="1" as="geometry">
            <mxPoint x="330" y="340" as="sourcePoint" />
            <mxPoint x="490" y="340" as="targetPoint" />
          </mxGeometry>
        </mxCell>
        <mxCell id="SScb_Fj4Xh0ruAuOUnyt-20" value="has - a" style="text;html=1;align=center;verticalAlign=middle;resizable=0;points=[];autosize=1;strokeColor=none;" vertex="1" parent="1">
          <mxGeometry x="337.5" y="252" width="50" height="20" as="geometry" />
        </mxCell>
      </root>
    </mxGraphModel>
  </diagram>
  <diagram id="34zowuY5tmk8F76nJxLv" name="Page-2">
    <mxGraphModel dx="865" dy="433" grid="1" gridSize="10" guides="1" tooltips="1" connect="1" arrows="1" fold="1" page="1" pageScale="1" pageWidth="850" pageHeight="1100" math="0" shadow="0">
      <root>
        <mxCell id="ehcI2jGlci_A9Y1MGZQc-0" />
        <mxCell id="ehcI2jGlci_A9Y1MGZQc-1" parent="ehcI2jGlci_A9Y1MGZQc-0" />
        <mxCell id="m0AOybnv_-tlgvnuuMHz-0" value="Interface&#xa;Subject" style="swimlane;fontStyle=0;childLayout=stackLayout;horizontal=1;startSize=26;fillColor=none;horizontalStack=0;resizeParent=1;resizeParentMax=0;resizeLast=0;collapsible=1;marginBottom=0;" vertex="1" parent="ehcI2jGlci_A9Y1MGZQc-1">
          <mxGeometry x="285" y="100" width="155" height="58" as="geometry">
            <mxRectangle x="285" y="100" width="80" height="30" as="alternateBounds" />
          </mxGeometry>
        </mxCell>
        <mxCell id="m0AOybnv_-tlgvnuuMHz-1" value="doSomething()" style="text;strokeColor=none;fillColor=none;align=left;verticalAlign=top;spacingLeft=4;spacingRight=4;overflow=hidden;rotatable=0;points=[[0,0.5],[1,0.5]];portConstraint=eastwest;" vertex="1" parent="m0AOybnv_-tlgvnuuMHz-0">
          <mxGeometry y="26" width="155" height="32" as="geometry" />
        </mxCell>
        <mxCell id="m0AOybnv_-tlgvnuuMHz-2" value="Proxy" style="swimlane;fontStyle=0;childLayout=stackLayout;horizontal=1;startSize=26;fillColor=none;horizontalStack=0;resizeParent=1;resizeParentMax=0;resizeLast=0;collapsible=1;marginBottom=0;" vertex="1" parent="ehcI2jGlci_A9Y1MGZQc-1">
          <mxGeometry x="160" y="210" width="155" height="86" as="geometry">
            <mxRectangle x="285" y="100" width="80" height="30" as="alternateBounds" />
          </mxGeometry>
        </mxCell>
        <mxCell id="m0AOybnv_-tlgvnuuMHz-3" value="RealSubject realSubject" style="text;strokeColor=none;fillColor=none;align=left;verticalAlign=top;spacingLeft=4;spacingRight=4;overflow=hidden;rotatable=0;points=[[0,0.5],[1,0.5]];portConstraint=eastwest;" vertex="1" parent="m0AOybnv_-tlgvnuuMHz-2">
          <mxGeometry y="26" width="155" height="24" as="geometry" />
        </mxCell>
        <mxCell id="m0AOybnv_-tlgvnuuMHz-4" value="doSomething()" style="text;strokeColor=none;fillColor=none;align=left;verticalAlign=top;spacingLeft=4;spacingRight=4;overflow=hidden;rotatable=0;points=[[0,0.5],[1,0.5]];portConstraint=eastwest;" vertex="1" parent="m0AOybnv_-tlgvnuuMHz-2">
          <mxGeometry y="50" width="155" height="36" as="geometry" />
        </mxCell>
        <mxCell id="m0AOybnv_-tlgvnuuMHz-5" value="RealSubject" style="swimlane;fontStyle=0;childLayout=stackLayout;horizontal=1;startSize=26;fillColor=none;horizontalStack=0;resizeParent=1;resizeParentMax=0;resizeLast=0;collapsible=1;marginBottom=0;" vertex="1" parent="ehcI2jGlci_A9Y1MGZQc-1">
          <mxGeometry x="425" y="210" width="155" height="98" as="geometry">
            <mxRectangle x="285" y="100" width="80" height="30" as="alternateBounds" />
          </mxGeometry>
        </mxCell>
        <mxCell id="m0AOybnv_-tlgvnuuMHz-6" value="allState()" style="text;strokeColor=none;fillColor=none;align=left;verticalAlign=top;spacingLeft=4;spacingRight=4;overflow=hidden;rotatable=0;points=[[0,0.5],[1,0.5]];portConstraint=eastwest;" vertex="1" parent="m0AOybnv_-tlgvnuuMHz-5">
          <mxGeometry y="26" width="155" height="36" as="geometry" />
        </mxCell>
        <mxCell id="m0AOybnv_-tlgvnuuMHz-16" value="doSomething()" style="text;strokeColor=none;fillColor=none;align=left;verticalAlign=top;spacingLeft=4;spacingRight=4;overflow=hidden;rotatable=0;points=[[0,0.5],[1,0.5]];portConstraint=eastwest;" vertex="1" parent="m0AOybnv_-tlgvnuuMHz-5">
          <mxGeometry y="62" width="155" height="36" as="geometry" />
        </mxCell>
        <mxCell id="m0AOybnv_-tlgvnuuMHz-7" value="" style="endArrow=block;dashed=1;endFill=0;endSize=12;html=1;exitX=0.5;exitY=0;exitDx=0;exitDy=0;" edge="1" parent="ehcI2jGlci_A9Y1MGZQc-1" source="m0AOybnv_-tlgvnuuMHz-2" target="m0AOybnv_-tlgvnuuMHz-1">
          <mxGeometry width="160" relative="1" as="geometry">
            <mxPoint x="310" y="360" as="sourcePoint" />
            <mxPoint x="470" y="360" as="targetPoint" />
          </mxGeometry>
        </mxCell>
        <mxCell id="m0AOybnv_-tlgvnuuMHz-8" value="" style="endArrow=block;dashed=1;endFill=0;endSize=12;html=1;exitX=0.25;exitY=0;exitDx=0;exitDy=0;entryX=0.661;entryY=1.046;entryDx=0;entryDy=0;entryPerimeter=0;" edge="1" parent="ehcI2jGlci_A9Y1MGZQc-1" source="m0AOybnv_-tlgvnuuMHz-5" target="m0AOybnv_-tlgvnuuMHz-1">
          <mxGeometry width="160" relative="1" as="geometry">
            <mxPoint x="247.5" y="220" as="sourcePoint" />
            <mxPoint x="338.409090909091" y="172" as="targetPoint" />
          </mxGeometry>
        </mxCell>
        <mxCell id="m0AOybnv_-tlgvnuuMHz-9" value="" style="endArrow=diamondThin;endFill=0;endSize=24;html=1;exitX=0;exitY=0.5;exitDx=0;exitDy=0;entryX=1;entryY=0.5;entryDx=0;entryDy=0;" edge="1" parent="ehcI2jGlci_A9Y1MGZQc-1" source="m0AOybnv_-tlgvnuuMHz-6" target="m0AOybnv_-tlgvnuuMHz-3">
          <mxGeometry width="160" relative="1" as="geometry">
            <mxPoint x="330" y="340" as="sourcePoint" />
            <mxPoint x="490" y="340" as="targetPoint" />
          </mxGeometry>
        </mxCell>
        <mxCell id="m0AOybnv_-tlgvnuuMHz-10" value="has - a" style="text;html=1;align=center;verticalAlign=middle;resizable=0;points=[];autosize=1;strokeColor=none;" vertex="1" parent="ehcI2jGlci_A9Y1MGZQc-1">
          <mxGeometry x="337.5" y="252" width="50" height="20" as="geometry" />
        </mxCell>
      </root>
    </mxGraphModel>
  </diagram>
  <diagram id="f12Xdq6hytvauVwIZPoV" name="Page-3">
    <mxGraphModel dx="1038" dy="519" grid="1" gridSize="10" guides="1" tooltips="1" connect="1" arrows="1" fold="1" page="1" pageScale="1" pageWidth="850" pageHeight="1100" math="0" shadow="0">
      <root>
        <mxCell id="af5BWsS8PUBvHlNiNvp6-0" />
        <mxCell id="af5BWsS8PUBvHlNiNvp6-1" parent="af5BWsS8PUBvHlNiNvp6-0" />
        <mxCell id="af5BWsS8PUBvHlNiNvp6-2" value="database" style="shape=datastore;whiteSpace=wrap;html=1;rounded=1;shadow=0;glass=0;sketch=0;fontSize=13;startSize=40;" vertex="1" parent="af5BWsS8PUBvHlNiNvp6-1">
          <mxGeometry x="510" y="170" width="60" height="60" as="geometry" />
        </mxCell>
        <mxCell id="af5BWsS8PUBvHlNiNvp6-4" value="Object" style="html=1;rounded=1;shadow=0;glass=0;sketch=0;fontSize=13;startSize=40;" vertex="1" parent="af5BWsS8PUBvHlNiNvp6-1">
          <mxGeometry x="190" y="175" width="110" height="50" as="geometry" />
        </mxCell>
        <mxCell id="af5BWsS8PUBvHlNiNvp6-5" value="Object" style="html=1;rounded=1;shadow=0;glass=0;sketch=0;fontSize=13;startSize=40;" vertex="1" parent="af5BWsS8PUBvHlNiNvp6-1">
          <mxGeometry x="190" y="265" width="110" height="50" as="geometry" />
        </mxCell>
        <mxCell id="af5BWsS8PUBvHlNiNvp6-6" value="Object" style="html=1;rounded=1;shadow=0;glass=0;sketch=0;fontSize=13;startSize=40;" vertex="1" parent="af5BWsS8PUBvHlNiNvp6-1">
          <mxGeometry x="190" y="85" width="110" height="50" as="geometry" />
        </mxCell>
        <mxCell id="af5BWsS8PUBvHlNiNvp6-7" value="" style="edgeStyle=elbowEdgeStyle;elbow=vertical;endArrow=classic;html=1;fontSize=13;startSize=40;entryX=0.15;entryY=0.05;entryDx=0;entryDy=0;entryPerimeter=0;exitX=1;exitY=0.5;exitDx=0;exitDy=0;" edge="1" parent="af5BWsS8PUBvHlNiNvp6-1" source="af5BWsS8PUBvHlNiNvp6-6" target="af5BWsS8PUBvHlNiNvp6-2">
          <mxGeometry width="50" height="50" relative="1" as="geometry">
            <mxPoint x="330" y="130" as="sourcePoint" />
            <mxPoint x="380" y="80" as="targetPoint" />
            <Array as="points">
              <mxPoint x="310" y="110" />
            </Array>
          </mxGeometry>
        </mxCell>
        <mxCell id="af5BWsS8PUBvHlNiNvp6-8" value="" style="edgeStyle=elbowEdgeStyle;elbow=vertical;endArrow=classic;html=1;fontSize=13;startSize=40;entryX=0;entryY=0.5;entryDx=0;entryDy=0;exitX=1;exitY=0.5;exitDx=0;exitDy=0;" edge="1" parent="af5BWsS8PUBvHlNiNvp6-1" source="af5BWsS8PUBvHlNiNvp6-4" target="af5BWsS8PUBvHlNiNvp6-2">
          <mxGeometry width="50" height="50" relative="1" as="geometry">
            <mxPoint x="310" y="120" as="sourcePoint" />
            <mxPoint x="529" y="183" as="targetPoint" />
            <Array as="points">
              <mxPoint x="410" y="200" />
            </Array>
          </mxGeometry>
        </mxCell>
        <mxCell id="af5BWsS8PUBvHlNiNvp6-9" value="" style="edgeStyle=elbowEdgeStyle;elbow=vertical;endArrow=classic;html=1;fontSize=13;startSize=40;entryX=0.5;entryY=1;entryDx=0;entryDy=0;exitX=1;exitY=0.5;exitDx=0;exitDy=0;" edge="1" parent="af5BWsS8PUBvHlNiNvp6-1" source="af5BWsS8PUBvHlNiNvp6-5" target="af5BWsS8PUBvHlNiNvp6-2">
          <mxGeometry width="50" height="50" relative="1" as="geometry">
            <mxPoint x="320" y="289.5" as="sourcePoint" />
            <mxPoint x="530" y="289.5" as="targetPoint" />
            <Array as="points">
              <mxPoint x="430" y="289.5" />
            </Array>
          </mxGeometry>
        </mxCell>
      </root>
    </mxGraphModel>
  </diagram>
  <diagram id="Pa_jXSlcPDeV-ggWFlsd" name="Page-4">
    <mxGraphModel dx="1038" dy="519" grid="1" gridSize="10" guides="1" tooltips="1" connect="1" arrows="1" fold="1" page="1" pageScale="1" pageWidth="850" pageHeight="1100" math="0" shadow="0">
      <root>
        <mxCell id="LNoCQ6ZkWWBHfxidjgGi-0" />
        <mxCell id="LNoCQ6ZkWWBHfxidjgGi-1" parent="LNoCQ6ZkWWBHfxidjgGi-0" />
        <mxCell id="uV1GduCljGSgI7aEAQK5-0" value="database" style="shape=datastore;whiteSpace=wrap;html=1;rounded=1;shadow=0;glass=0;sketch=0;fontSize=13;startSize=40;" vertex="1" parent="LNoCQ6ZkWWBHfxidjgGi-1">
          <mxGeometry x="510" y="170" width="60" height="60" as="geometry" />
        </mxCell>
        <mxCell id="uV1GduCljGSgI7aEAQK5-1" value="Object" style="html=1;rounded=1;shadow=0;glass=0;sketch=0;fontSize=13;startSize=40;" vertex="1" parent="LNoCQ6ZkWWBHfxidjgGi-1">
          <mxGeometry x="70" y="170" width="110" height="50" as="geometry" />
        </mxCell>
        <mxCell id="uV1GduCljGSgI7aEAQK5-2" value="Object" style="html=1;rounded=1;shadow=0;glass=0;sketch=0;fontSize=13;startSize=40;" vertex="1" parent="LNoCQ6ZkWWBHfxidjgGi-1">
          <mxGeometry x="70" y="265" width="110" height="50" as="geometry" />
        </mxCell>
        <mxCell id="uV1GduCljGSgI7aEAQK5-3" value="Object" style="html=1;rounded=1;shadow=0;glass=0;sketch=0;fontSize=13;startSize=40;" vertex="1" parent="LNoCQ6ZkWWBHfxidjgGi-1">
          <mxGeometry x="70" y="80" width="110" height="50" as="geometry" />
        </mxCell>
        <mxCell id="uV1GduCljGSgI7aEAQK5-16" style="edgeStyle=orthogonalEdgeStyle;rounded=0;orthogonalLoop=1;jettySize=auto;html=1;fontSize=13;startSize=40;" edge="1" parent="LNoCQ6ZkWWBHfxidjgGi-1" source="uV1GduCljGSgI7aEAQK5-9" target="uV1GduCljGSgI7aEAQK5-0">
          <mxGeometry relative="1" as="geometry" />
        </mxCell>
        <mxCell id="uV1GduCljGSgI7aEAQK5-9" value="Proxy" style="html=1;rounded=1;shadow=0;glass=0;sketch=0;fontSize=13;startSize=40;" vertex="1" parent="LNoCQ6ZkWWBHfxidjgGi-1">
          <mxGeometry x="260" y="130" width="165" height="140" as="geometry" />
        </mxCell>
        <mxCell id="uV1GduCljGSgI7aEAQK5-12" value="" style="shape=mxgraph.arrows.slender_two_way_arrow;html=1;verticalLabelPosition=bottom;verticalAlign=top;strokeWidth=2;strokeColor=#000000;rounded=1;shadow=0;glass=0;sketch=0;fontSize=13;startSize=40;rotation=30;" vertex="1" parent="LNoCQ6ZkWWBHfxidjgGi-1">
          <mxGeometry x="190" y="120" width="57" height="30" as="geometry" />
        </mxCell>
        <mxCell id="uV1GduCljGSgI7aEAQK5-13" value="" style="shape=mxgraph.arrows.slender_two_way_arrow;html=1;verticalLabelPosition=bottom;verticalAlign=top;strokeWidth=2;strokeColor=#000000;rounded=1;shadow=0;glass=0;sketch=0;fontSize=13;startSize=40;rotation=-45;" vertex="1" parent="LNoCQ6ZkWWBHfxidjgGi-1">
          <mxGeometry x="190" y="260" width="57" height="30" as="geometry" />
        </mxCell>
        <mxCell id="uV1GduCljGSgI7aEAQK5-15" value="" style="shape=mxgraph.arrows.slender_two_way_arrow;html=1;verticalLabelPosition=bottom;verticalAlign=top;strokeWidth=2;strokeColor=#000000;rounded=1;shadow=0;glass=0;sketch=0;fontSize=13;startSize=40;rotation=0;" vertex="1" parent="LNoCQ6ZkWWBHfxidjgGi-1">
          <mxGeometry x="190" y="185" width="57" height="30" as="geometry" />
        </mxCell>
      </root>
    </mxGraphModel>
  </diagram>
</mxfile>
